<svg id="Duration_icon" data-name="Duration icon" xmlns="http://www.w3.org/2000/svg" width="22" height="22" viewBox="0 0 22 22">
  <rect id="Rectangle_1381" data-name="Rectangle 1381" width="22" height="22" fill="none"/>
  <rect id="Rectangle_4417" data-name="Rectangle 4417" width="15.498" height="9.299" transform="translate(3.251 3.775)" fill="none" stroke="#fff" stroke-linecap="round" stroke-linejoin="round" stroke-width="2"/>
  <path id="Path_14431" data-name="Path 14431" d="M13.318,8.159A5.159,5.159,0,1,1,3,8.159a5.6,5.6,0,0,1,.405-2.008A5.045,5.045,0,0,1,8.159,3,5.159,5.159,0,0,1,13.318,8.159Z" transform="translate(2.841 1.741)" fill="#099a83"/>
  <path id="Path_14432" data-name="Path 14432" d="M8.166,5.583A2.583,2.583,0,1,1,5.583,3,2.583,2.583,0,0,1,8.166,5.583Z" transform="translate(5.417 3.875)" fill="none" stroke="#fff" stroke-linecap="round" stroke-linejoin="round" stroke-width="2"/>
  <path id="Path_14433" data-name="Path 14433" d="M11.712,5.583c0,1.427-8.712,1.427-8.712,0S4.95,3,7.356,3,11.712,4.156,11.712,5.583Z" transform="translate(3.643 11.82)" fill="none" stroke="#fff" stroke-linecap="round" stroke-linejoin="round" stroke-width="2"/>
</svg>
