<svg xmlns="http://www.w3.org/2000/svg" width="24" height="24" viewBox="0 0 24 24">
  <g id="Group_11886" data-name="Group 11886" transform="translate(0 0)">
    <path id="Path_84" data-name="Path 84" d="M24,106.047a12,12,0,1,1-12-12,12,12,0,0,1,12,12" transform="translate(0 -94.047)" fill="#0066c8"/>
    <path id="Path_85" data-name="Path 85" d="M28.172,118.51v3.9h-2.26v-3.637c0-.913-.326-1.537-1.144-1.537a1.237,1.237,0,0,0-1.159.826,1.548,1.548,0,0,0-.075.551v3.8h-2.26s.03-6.159,0-6.8h2.26v.963c0,.008-.011.015-.015.022h.015v-.022a2.243,2.243,0,0,1,2.037-1.123c1.487,0,2.6.971,2.6,3.059m-9.263-6.176a1.178,1.178,0,1,0-.03,2.349h.015a1.178,1.178,0,1,0,.015-2.349m-1.144,10.074h2.259v-6.8H17.764Z" transform="translate(-10.9 -105.371)" fill="#fff"/>
  </g>
</svg>
